<svg width="203" height="182" viewBox="0 0 203 182" fill="none" xmlns="http://www.w3.org/2000/svg">
<path d="M92.9164 33.1428C114.938 25.8977 119.916 13.1428 137.916 4.64277C155.916 -3.85725 173.416 0.203656 186.416 9.64272C199.416 19.0818 202.416 30.6427 202.416 40.6427C202.416 50.6427 198.153 62.5522 186.416 71.6427C174.729 80.6954 156.423 75.4151 142.416 80.1427C124.13 86.3146 122.505 101.643 104.916 113.143C87.3281 124.643 41.0308 140.78 16.4163 117.143C3.70565 104.937 -2.46808 92.437 0.916259 75.1427C4.39 57.3916 19.9165 46.6428 35.4164 41.6428C50.9163 36.6427 73.3527 39.5792 92.9164 33.1428Z" fill="#E95B47"/>
<path d="M156.416 92.1427C161.916 92.1427 168.916 91.0821 179.416 99.6427C189.916 108.203 195.916 120.143 189.916 135.643C183.916 151.143 171.416 158.295 164.416 162.643C157.416 166.991 143.916 176.143 130.916 179.643C117.916 183.143 101.916 182.643 95.4163 167.643C88.9163 152.643 104.674 142.468 113.916 127.643C119.934 117.991 120.416 107.643 128.416 101.143C136.416 94.6427 150.916 92.1427 156.416 92.1427Z" fill="#E95B47"/>
</svg>
