<svg width="320" height="320" viewBox="0 0 320 320" fill="none" xmlns="http://www.w3.org/2000/svg">
<path d="M69.2591 150.628C71.5857 151.769 73.8391 152.835 76.0336 153.832M278.472 132.098C276.658 134.546 275.096 136.288 273.291 137.724M76.0336 153.832C100.516 164.954 117.678 167.363 147.514 166.313C148.081 166.293 148.561 166.746 148.561 167.313V202.043C148.561 202.546 148.928 202.97 149.427 203.031C191.142 208.162 247.36 195.503 266.24 176.44C266.422 176.256 266.517 176.012 266.517 175.753V142.224C266.517 141.826 266.753 141.467 267.116 141.304C269.668 140.161 271.588 139.079 273.291 137.724M76.0336 153.832C82.6099 139.029 92.8254 130.924 103.132 134.847M108.312 137.863C106.594 136.502 104.862 135.505 103.132 134.847M103.132 134.847C116.136 120.995 132.26 116.861 144.177 125.345M150.553 131.687C148.62 129.089 146.477 126.982 144.177 125.345M144.177 125.345C160.845 107.576 182.496 104.951 189.532 118.51M191.599 125.345C191.249 122.732 190.541 120.455 189.532 118.51M189.532 118.51C206.519 112.277 224.843 115.985 229.751 128.393M230.652 139.51C231.378 135.257 230.997 131.544 229.751 128.393M229.751 128.393C249.365 118.811 268.908 121.393 273.291 137.724M164.501 170.804C172.149 165.476 181.231 164.694 188.188 167.51M199.17 185.216C199.761 176.462 194.991 170.265 188.188 167.51M188.188 167.51C200.235 151.663 221.885 153.832 221.885 167.51M62.4846 186.863V193.451M69.2591 180.275V185.216M73.6426 195.922V200.451M126.245 175.745H132.222M138.997 175.745V181.51M266.517 102.04V106.981M275.682 109.451V115.628M34.1911 192.647C34.1911 192.647 37.8167 186.925 40.9656 187.706C44.278 188.527 45.3859 192.509 44.5521 195.922C44.3157 196.89 43.6639 197.717 42.8286 198.412M34.1911 192.647C34.1911 192.647 28.8515 186.374 25.0256 187.706C21.5918 188.902 19.2098 192.333 20.2436 195.922C21.0044 198.563 25.2626 199.902 26.834 200.312C27.1909 200.405 27.4822 200.672 27.5873 201.026L29.9604 209.01C30.2078 209.842 31.3253 209.985 31.7746 209.242L36.3641 201.655C36.5035 201.424 36.7284 201.26 36.9881 201.189C38.0421 200.898 40.9163 200.003 42.8286 198.412M34.1911 192.647C38.0108 179.734 42.2788 175.638 54.9131 175.765M54.9131 175.765V126.604C54.9131 126.427 54.9555 126.26 55.0461 126.108C83.3637 78.5475 268.543 55.6494 289.96 112.562C290.005 112.682 290.026 112.812 290.022 112.94L288.514 160.941M54.9131 175.765V194.294M42.8286 198.412C48.3518 194.107 51.1041 192.845 54.9131 194.294M54.9131 194.294V199.885C54.9131 200.236 55.0869 200.556 55.3894 200.735C112.593 234.545 252.248 228.734 287.876 176.393C287.982 176.238 288.039 176.057 288.045 175.869L288.514 160.941M288.514 160.941C302.78 162.177 307.562 180.706 284.051 196.353M284.051 196.353C279.94 202.067 270.412 207.088 260.919 210.293C259.782 210.677 260.067 212.824 261.268 212.824H269.216C269.975 212.824 270.437 213.627 269.961 214.218C265.67 219.529 254.634 222.786 244.888 225.357C243.734 225.661 243.985 227.253 245.176 227.193L258.154 226.533C259.04 226.488 259.521 227.514 258.874 228.121C253.425 233.247 245.441 236.67 236.161 239.224C234.991 239.546 235.216 241.312 236.427 241.243C247.069 240.635 262.87 239.134 269.705 235.471C280.861 229.491 287.182 214.658 283.92 202.118M284.051 196.353C284.051 196.353 283.971 199.866 283.92 202.118M283.92 202.118C284.749 198.701 287.861 196.595 291.224 197.177C293.939 197.646 296.099 199.29 296.404 202.118C296.747 205.29 294.268 207.751 291.224 208.294C287.592 208.942 284.024 205.925 283.92 202.118Z" stroke="black" stroke-width="5" stroke-linecap="round"/>
</svg>
