<svg width="320" height="320" viewBox="0 0 320 320" fill="none" xmlns="http://www.w3.org/2000/svg">
<path d="M50.5353 203.752L56.5555 199.752M63.579 190.753L68.0942 186.753M130.303 127.255L136.323 131.255L50.5353 215.752L40 203.752L124.282 123.255L130.303 127.255ZM130.303 127.255C149.303 103.509 181.722 99.6405 208.155 94.3569M191.113 166.254C215.696 156.754 230.613 171.064 250.204 163.254C260.238 159.254 278.253 145.936 279.804 131.255C280.807 121.755 278.064 116.617 269.268 110.255C254.204 99.3609 238.164 115.255 216.592 105.756C210.427 103.041 208.539 99.3173 208.155 94.3569M191.113 166.254C191.42 168.403 190.289 171.646 186.993 175.753M191.113 166.254C190.487 161.862 183.861 162.039 177.461 168.753M177.461 168.753C186.993 158.754 197.026 163.254 186.993 175.753M177.461 168.753C157.393 163.754 127.822 195.356 131.808 194.253C149.868 189.253 158.415 192.446 153.38 194.253C140.838 198.752 125.788 213.752 128.296 216.252C129.592 217.543 135.218 215.141 139.639 213.253C143.775 211.487 146.856 210.171 144.35 212.752C129.299 228.251 125.788 249.417 127.293 250.751C129.658 252.846 133.537 248.631 137.272 244.572C140.667 240.883 143.944 237.323 145.855 238.751C146.163 238.981 145.468 241.983 144.563 245.889C142.78 253.589 140.182 264.806 142.845 265.25C144.725 265.564 150.777 255.922 156.069 247.491C160.797 239.959 164.919 233.392 164.919 235.751C164.919 236.212 164.917 236.676 164.915 237.143C164.894 243.262 164.871 249.874 168.43 254.751C169.645 256.415 171.684 246.613 173.749 236.688C175.947 226.122 178.174 215.416 179.467 218.252C180.173 219.8 180.973 222.902 181.772 226.005C183.48 232.633 185.189 239.263 185.989 230.751C186.577 224.503 186.283 219.878 185.989 215.252C185.695 210.626 185.402 206.001 185.989 199.752C186.555 193.736 188.67 199.656 190.822 205.683C193.14 212.174 195.503 218.789 196.023 210.752C197.026 195.253 192.307 180.543 186.993 175.753M177.461 168.753C177.81 170.691 178.365 172.098 179.467 173.146M186.993 175.753C183.141 175.228 180.864 174.476 179.467 173.146M179.467 173.146C166.454 185.751 155.387 205.252 155.387 228.251M213.08 196.253C214.607 202.419 214.713 206.013 213.08 212.752M221.107 188.253C224.571 192.353 225.983 195.017 225.622 201.752M208.155 94.3569C207.899 91.0591 208.307 87.2146 208.565 82.7563C209.359 69.0264 220.43 60.107 226.625 57.2572C233.147 54.2573 241.284 51.7488 247.194 57.2572C253.032 62.6973 249.776 71.4692 247.194 75.7566C240.592 86.7238 225.69 90.8517 208.155 94.3569Z" stroke="black" stroke-width="5" stroke-linecap="round"/>
</svg>
