<svg width="320" height="320" viewBox="0 0 320 320" fill="none" xmlns="http://www.w3.org/2000/svg">
<path d="M13 119V206.336C13 206.739 13.2409 207.102 13.6114 207.258L164.758 271M13 119L65.0886 143.906M13 119L66.5911 97.5592M164.758 271L306.41 207.265C306.769 207.104 307 206.747 307 206.353V134M164.758 271L167.763 193M307 134L144.223 66.5M307 134L274.414 147.801C274.119 147.926 273.901 148.185 273.83 148.498L271.196 160M144.223 66.5V109.84M144.223 66.5L136.71 69.5057M167.763 193L203.958 177.863C204.446 177.659 205.008 177.87 205.241 178.345L216.935 202.16C217.167 202.632 217.726 202.844 218.213 202.644L265.452 183.197C265.752 183.073 265.973 182.812 266.046 182.495L271.196 160M167.763 193L135.347 177.5M65.0886 143.906C65.0886 143.906 64.2902 124.413 72.6014 124C77.5934 123.752 79.1893 128.689 84.121 129.5C92.859 130.938 95.1397 116 102.152 119C104.248 119.897 103.517 123.417 105.157 125C111.399 131.029 115.174 109.5 123.187 111C126.92 111.699 125.945 116.924 129.698 117.5C135.275 118.357 139.383 110.776 144.223 109.84M65.0886 143.906L85.6235 153.725M271.196 160C271.196 160 263.927 156 252.908 159C247.11 160.579 252.081 140.596 243.392 139.5C238.612 138.897 236.514 145.193 231.872 143.906C226.172 142.326 228.867 133.5 224.86 130.5C219.36 126.382 207.237 140.443 200.319 134C196.6 130.537 200.359 123.77 195.811 121.5C190.802 119 174.775 131.5 169.767 124C167.597 120.751 171.188 117.095 168.264 114.5C163.756 110.5 158.247 121.5 151.736 119C147.868 117.515 150.659 111.308 146.727 110C145.865 109.713 145.034 109.683 144.223 109.84M106.158 143.906C106.158 143.906 111.425 131.082 116.676 133.5C119.341 134.727 121.184 139.5 121.184 139.5M134.206 151C134.206 151 138.052 143.551 142.22 143.906C146.965 144.31 139.716 154.188 145.225 152.594C150.734 151 155.242 142 160.751 146.5M155.242 165C155.242 165 165.127 160.888 167.763 165C169.45 167.631 167.763 173 167.763 173M184.291 158C184.291 158 192.342 147.044 195.811 151C198.13 153.645 195.811 160 195.811 160M217.848 161.5C222.49 156.96 226.864 162 230.871 156.5M226.864 183C226.864 183 225.338 174.856 228.867 173C232.505 171.086 234.735 179.394 238.383 177.5C241.512 175.876 238.167 170.431 241.388 169C244.746 167.509 249.903 173 249.903 173M24.0187 184.5V193M40.046 190V193M30.029 198.5L31.5315 204.5M155.242 203V207M145.225 211V216M178.281 253.5L184.291 250.5M289.47 154.5L295.48 151M295.48 160V167M66.5911 97.5592C64.5078 87.6003 65.5662 83.097 72.2134 77.8048C72.4552 77.6124 72.6014 77.3192 72.6014 77.0102V66.2778C72.6014 65.498 73.4543 65.0183 74.1207 65.4232L83.5323 71.1423C83.8868 71.3577 84.3373 71.3311 84.6672 71.0797C90.4492 66.675 94.5502 64.9891 103.171 64.5245C103.474 64.5082 103.758 64.357 103.936 64.1112L113.339 51.1479C113.745 50.5883 114.583 50.5995 114.974 51.1697L120.407 59.0974C120.581 59.3515 120.867 59.5108 121.174 59.5323C130.005 60.1501 133.58 62.4109 136.71 69.5057M66.5911 97.5592L90.632 87.9408M136.71 69.5057L108.162 80.9275M90.632 80.5V87.9408M90.632 87.9408L108.162 80.9275M108.162 74.5V80.9275" stroke="black" stroke-width="5" stroke-linecap="round"/>
</svg>
