<svg width="250" height="203" viewBox="0 0 250 203" fill="none" xmlns="http://www.w3.org/2000/svg">
<path d="M0.000151375 62.7397C0.0602826 33.3702 20.0282 12.468 46.6365 3.37628C71.08 -4.97576 96.0694 3.36326 106.175 15.3531C117.586 28.8921 118.821 46.7797 112.129 65.8641C101.875 95.1056 78.7371 111.21 49.1185 109.085C19.7304 106.976 -0.0631469 93.6562 0.000151375 62.7397Z" fill="#B2AB73"/>
<path d="M157.773 64.8227C177.152 44.2667 203.634 33.4433 226.737 49.2007C243.815 60.8491 249.91 77.3119 249.063 98.6702C248.072 123.665 232.196 141.37 212.846 159.596C189.366 181.712 177.905 191.433 147.354 199.692C129.037 204.644 115.106 204.379 102.702 195.526C91.2952 187.385 84.0889 172.444 93.2753 152.826C103.131 131.78 125.62 141.812 140.905 124.707C157.692 105.921 134.7 89.297 157.773 64.8227Z" fill="#B2AB73"/>
</svg>
