<svg width="320" height="320" viewBox="0 0 320 320" fill="none" xmlns="http://www.w3.org/2000/svg">
<path d="M40.9283 155.579C52.8308 103.518 197.135 40.5243 244.243 74.364M40.9283 155.579L55.5917 193.553C55.7232 193.893 56.028 194.129 56.3866 194.167C93.2355 198.026 131.049 192.308 164.405 179.718M40.9283 155.579C43.6963 162.724 48.8653 167.77 55.805 171.032M244.243 74.364C244.479 74.8926 244.689 75.4264 244.873 75.9651M244.243 74.364L244.873 75.9651M55.805 171.032C58.7803 137.358 162.421 66.5548 243.584 92.5854M55.805 171.032C85.9121 185.185 149.347 165.765 194.654 138.446C208.544 129.575 215.891 123.991 228.375 113.183C235.474 106.23 240.762 99.2553 243.584 92.5854M243.584 92.5854C246.058 86.737 246.635 81.1232 244.873 75.9651M164.405 179.718C166.792 185.23 173.331 187.474 176.306 186.816C179.282 186.159 183.231 175.363 182.012 172.239M164.405 179.718C161.125 174.171 164.735 165.61 170.852 164.43C176.003 163.436 179.778 166.512 182.012 172.239M182.012 172.239C214.939 156.61 241.951 134.037 256.896 107.591C257.049 107.32 257.071 106.996 256.959 106.712L244.873 75.9651M246.227 105.601L246.723 110.807M242.26 116.534L238.293 121.219M193.167 79.0493L200.605 78.0081M205.564 73.3226L213.498 73.3226M64.2351 186.816L69.194 186.816M79.1118 186.816L83.5748 186.816M237.301 195.012L238.293 206.465M232.838 202.367L243.747 196.574M181.734 221.384C177.602 221.049 174.696 216.84 175.288 212.534C175.695 209.57 177.103 207.579 179.751 206.465C184.676 204.394 191.096 212.262 188.677 217.219C187.253 220.137 184.848 221.637 181.734 221.384ZM181.734 221.384C177.723 228.532 174.666 232.016 166.858 236.704M181.734 221.384C182.865 227.842 183.183 231.569 182.012 238.801M166.858 236.704C159.663 233.418 154.413 226.981 153.964 218.26C153.317 205.675 163.359 196.437 175.288 195.012C188.771 193.401 201.875 202.997 201.074 217.219C200.44 228.483 192.207 237.012 182.012 238.801M166.858 236.704C169.754 238.027 172.966 238.84 176.306 239.085C178.25 239.228 180.163 239.125 182.012 238.801M212.673 177.153C211.121 181.592 208.517 186.241 205.041 189.447C204.393 190.045 204.596 191.342 205.327 191.822C209.479 194.546 212.148 201.769 213.794 206.465C214.147 207.471 215.27 207.262 215.316 206.192C215.557 200.636 216.233 196.023 221.872 192.654C222.775 192.115 222.666 190.024 221.798 189.425C218.16 186.916 216.239 181.803 214.748 177.132C214.432 176.143 213.015 176.174 212.673 177.153ZM143.424 239.735C137.693 243.105 137.004 247.732 136.761 253.313C136.715 254.362 135.581 254.588 135.237 253.608C133.579 248.877 130.883 241.582 126.678 238.906C125.965 238.453 125.785 237.232 126.425 236.646C129.923 233.446 132.544 228.782 134.106 224.327C134.446 223.358 135.879 223.297 136.187 224.26C137.699 229 139.653 234.2 143.395 236.673C144.249 237.237 144.324 239.205 143.424 239.735Z" stroke="black" stroke-width="5" stroke-linecap="round"/>
</svg>
