<svg width="320" height="320" viewBox="0 0 320 320"  xmlns="http://www.w3.org/2000/svg" fill="none">
<path d="M58.3159 183.384C58.3159 183.384 63.9136 176.487 65.1147 172.806C65.9421 170.269 65.3676 168.174 64.9594 166.036M189.064 122.877C191.269 123.36 193.957 123.181 196.198 122.877C197.236 122.736 198.07 122.431 198.784 122.031C201.515 120.498 202.491 117.554 206.452 116.953C209.895 116.431 212.39 115.073 214.95 117.32C216.611 118.779 218.963 121.129 217.458 124.937C215.824 129.074 212.832 131.18 211.94 135.411C211.11 139.347 209.363 143.916 212.441 146.837C215.519 149.758 219.096 146.604 222.503 144.033C226.989 140.648 221.085 137.694 223.841 133.878C225.485 131.602 227.993 132.555 229.999 133.031C234.678 134.141 238.109 140.225 244.351 147.418C246.122 149.459 245.256 151.897 244.547 154.454C243.2 159.314 234.181 159.113 235.518 163.976C236.852 168.831 242.63 166.036 247.917 166.036C252.072 166.036 256.835 168.062 256.835 171.536M189.064 122.877C183.902 121.746 184.52 116.756 184.115 111.875C183.88 109.04 183.299 106.242 181.038 104.259C178.341 101.894 175.319 98.7531 172.121 99.6048C166.943 100.984 168.02 109.205 162.778 108.067C160.651 107.606 158.401 105.816 156.962 104.259C153.696 100.726 159.266 96.8488 159.266 91.612C159.266 86.0598 154.976 82.1898 149.382 80.5642C144.974 79.2832 142.104 79.2928 138.196 81.6144C132.454 85.0262 137.504 94.1166 131.102 96.2198C128.14 97.1927 127.38 96.6429 122.631 96.6429C114.619 96.6429 112.767 100.769 110.147 108.914C107.595 116.844 117.726 125.416 112.376 126.685C105.83 128.238 99.8918 122.031 94.0956 122.877C89.2463 123.585 85.8122 126.996 86.5258 131.602C87.3371 136.839 92.044 134.935 93.2039 139.379C94.6888 145.068 89.5432 150.245 83.8408 152.496C79.0176 154.399 74.3809 149.768 70.0192 152.496C66.7519 154.539 66.184 156.164 64.9594 159.691C64.2545 161.721 64.6307 164.314 64.9594 166.036M189.064 122.877C189.064 122.877 196.657 114.78 200.274 106.846C200.831 105.626 201.327 104.145 201.765 102.562M256.835 171.536C256.835 174.075 253.268 183.361 253.268 183.361M256.835 171.536C256.835 171.536 275.115 175.767 276.453 176.614M64.9594 166.036C64.9594 166.036 46.3886 172.806 44.6051 174.498M44.6051 174.498C42.9542 176.065 30.9872 213.528 29.2183 219.086C29.0839 219.508 29.2427 219.937 29.6115 220.183C97.9145 265.67 254.055 255.272 289.9 216.377C290.141 216.115 290.212 215.773 290.102 215.434C288.596 210.804 277.697 177.401 276.453 176.614M44.6051 174.498C44.6051 174.498 53.0765 183.579 74.9236 189.308C108.809 198.193 154.287 196.078 154.287 196.078M276.453 176.614C253.185 184.127 239.212 186.97 213.586 191M100.338 175.344C100.338 175.344 99.8918 170.69 107.471 166.036C110.413 164.229 102.687 161.663 103.459 158.419C104.004 156.128 105.258 154.815 107.471 153.765C110.147 152.496 119.51 154.188 122.631 152.496C125.834 150.758 125.878 147.532 125.752 144.033C125.637 140.844 123.073 139.493 123.968 136.417C125.366 131.615 136.007 135.147 136.007 135.147M140.911 113.991C140.911 113.991 146.4 111.111 146.261 108.067C146.185 106.395 142.936 107.326 140.911 106.798C137.999 106.038 136.007 104.259 136.007 104.259M169.892 126.685C169.892 126.685 163.156 121.306 158.3 122.031C154.815 122.55 154.814 124.939 152.503 127.954C150.384 130.719 148.341 134.076 151.166 135.571C154.866 137.528 156.597 131.957 160.529 133.455C163.5 134.586 165.879 135.994 165.879 139.802C165.879 142.446 163.193 144.126 164.987 146.149C167.118 148.55 171.113 143.935 173.459 146.149C175.931 148.482 173.013 154.611 173.013 154.611M143.586 167.305C143.586 167.305 145.713 170.799 145.37 174.075C145.107 176.58 142.206 178.371 142.694 180.845C143.566 185.263 151.394 176.745 156.07 177.46C159.844 178.037 159.884 181.912 163.65 182.538C165.536 182.851 166.791 183.247 168.554 182.538C171.566 181.326 172.121 175.344 172.121 175.344M187.726 163.497C188.796 163.497 192.334 164.766 193.523 166.036C194.711 167.305 187.901 172.879 189.956 176.614C193.166 182.447 204.223 167.305 204.223 167.305M48.6179 201.778C47.2578 204.215 46.6277 205.598 45.9427 208.125M50.8472 214.895C49.5024 216.89 49.0428 217.963 48.6179 219.773M64.9594 208.125C64.2289 210.894 63.7383 212.397 62.4395 214.895M204.274 88.7555C204.274 88.7555 224.841 80.6622 219.774 73.9971C216.373 69.5225 209.274 76.8536 206.452 76.3775C203.631 75.9014 198.284 68.7603 194.774 70.1885C186.644 73.4962 204.274 88.7555 204.274 88.7555ZM204.274 88.7555C204.274 88.7555 204.087 90.5232 203.704 93.0402M190.274 94.4684C195.504 94.5344 198.46 94.2382 203.704 93.0402M203.704 93.0402C203.29 95.7665 202.647 99.3717 201.765 102.562M203.704 93.0402C206.587 96.4103 208.319 98.0142 211.94 99.6048M189.064 102.562C191.38 103.109 198.838 103.121 201.765 102.562M201.765 102.562C204.391 105.364 205.431 107.124 206.452 110.655" stroke="black" stroke-width="5" stroke-linecap="round"/>
</svg>
