<svg width="320" height="320" viewBox="0 0 320 320" fill="none" xmlns="http://www.w3.org/2000/svg">
<path d="M277 153.289L272.5 236.289C210.5 254.789 104.5 256.789 56 232.789L53 151.289M277 153.289C277 147.34 249.149 136.026 245 140.289M277 153.289C277 157.789 270.779 161.873 260.12 165.289M53 151.289C53 138.311 103.749 128.789 164.5 128.789C170.779 128.789 177.461 128.885 183.5 129.12C185.826 133.388 187.403 135.762 190.455 139.789C120.455 137.789 61.5 147.311 61.5 160.289M53 151.289C53 156.812 62.1874 162.07 77.4237 166.289M53 151.289C53.5127 155.151 55.2955 157.124 61.5 160.289M61.5 160.289C67.5687 163.227 70.8755 164.536 77.4237 166.289M186 175.385C216.879 174.209 243.74 170.538 260.12 165.289M134.5 174.835C111.812 173.365 91.8911 170.296 77.4237 166.289M77.4237 166.289C77.4237 166.289 85.2766 154.839 92.5 154.789C96.4537 154.762 98.6051 158.11 102.5 158.789C107.121 159.595 110.805 159.887 115 157.789C120 155.289 120.362 148.285 128.5 150.789C135 152.789 128.5 157.789 136 156.789C147.645 155.237 150.5 149.289 162 149.289C165.751 149.289 166.287 154.259 170 154.789C171.724 155.036 176.03 152.08 183 150.789C190.178 149.46 200 149.789 200 149.789M200 149.789C200 149.789 167.5 123.289 182 93.2894C186.813 83.332 190.058 73.8986 201 72.2894C209.944 70.974 220.273 72.5654 229 76.6265M200 149.789C214 163.789 235.208 166.282 259.849 164.638M153 164.789C153 164.789 157.439 158.509 162 160.789C164 161.789 163.5 164.789 167.5 165.289C172.207 165.878 176.5 163.789 176.5 163.789M245 140.289C240 117.289 253 108.789 246.5 93.2894C243.42 85.9447 236.86 80.284 229 76.6265M245 140.289C248.043 154.289 250.088 157.582 259.849 164.638M260.12 165.289L259.849 164.638M229 76.6265C229 76.6265 244.483 70.1306 255 69.2893C267.5 68.2893 275.017 69.6828 273 76.6265C271.5 81.7892 267 80.2893 258 80.2893C246.585 80.2893 229 76.6265 229 76.6265ZM208.5 136.289C208.5 136.289 202.5 125.897 202.5 114.789C202.5 110.789 204.561 97.3786 210 96.7892C215.917 96.1481 220.868 101.446 222 107.289C222.673 110.761 220.5 117.289 220.5 117.289M66 204.789C65.4136 206.983 65.3937 208.898 66 213.789M85.5 207.289C86.1382 210.653 85.9609 212.514 84.5 215.789M72 219.789C71.4537 223.079 71.5183 224.679 72 227.289M254.5 187.289C253.905 190.671 253.872 192.732 254.5 196.789M262 175.385C262.539 179.025 262.482 180.827 262 183.789M186.5 211.789C180 234.289 140 238.289 129 212.289C149.522 195.468 168.5 194.289 186.5 211.789ZM186.5 211.789C186.5 211.789 204.257 222.289 206.5 220.789C208.743 219.289 208 201.789 206.5 199.289C205 196.789 186.5 211.789 186.5 211.789ZM147 213.289V215.789M43 116.789C48.248 118.784 50.9208 120.349 55 124.289M59.5 95.7892C63.4975 101.001 65.2636 104.06 67.5 109.789M87 98.7892C86.4409 105.015 86.4053 108.323 87 113.789" stroke="black" stroke-width="5" stroke-linecap="round"/>
</svg>
