<svg width="320" height="320" viewBox="0 0 320 320" fill="none" xmlns="http://www.w3.org/2000/svg">
<path d="M45.5 90L90.8412 73.5576C90.9463 73.5195 91.0571 73.4992 91.1689 73.4978L280.5 71M45.5 90V102.5C45.5 103.052 45.9477 103.5 46.5 103.5H97M45.5 90H176M250 90L280.5 71M250 90L251 103.5M250 90H226M280.5 71V83.4623C280.5 83.798 280.332 84.1114 280.051 84.2965L251 103.5M251 103.5H229.5M97 103.5H202.5M97 103.5V196.741M202.5 103.5H229.5M202.5 103.5V198.864M259 200V214.099C259 214.356 258.901 214.604 258.723 214.79L227 248M259 200L227 235.5M259 200L202.5 198.864M227 248L39.9681 242.031C39.4285 242.014 39 241.571 39 241.031V229.5M227 248V235.5M39 229.5L84.7296 196.694C84.9052 196.568 85.1167 196.502 85.3327 196.507L97 196.741M39 229.5L227 235.5M229.5 103.5C229.5 103.5 229.5 129.098 229.5 145.5M229.5 145.5C222.348 146.339 217.235 152.304 217.5 159.5C217.754 166.404 222.596 172.224 229.5 172.5C236.674 172.787 242.234 166.675 242.5 159.5C242.776 152.044 236.956 145.776 229.5 145.5ZM97 196.741V212.07C97 212.345 97.1037 212.6 97.3064 212.785C117.186 230.915 190.914 230.412 202.354 212.732C202.454 212.578 202.5 212.403 202.5 212.219V198.864M171.5 113C173.207 112.619 174.679 112.528 180 113M189 115.5C190.098 119.073 190.076 120.931 189 124M119.5 182.5C119.932 186.203 119.882 188.3 119.5 192M109 187C108.795 188.718 108.757 189.77 109 192M118.5 205C118.705 207.567 118.778 208.961 118.5 211M228 207.5C231.634 206.393 233.335 206.04 235 206.5M223.5 222C223.532 220.263 224.299 219.196 228 217M255 128C261.443 127.356 264.449 128.062 268 132.5M248.5 137C253.659 137.744 255.884 139.206 257.5 145.5" stroke="black" stroke-width="5" stroke-linecap="round"/>
</svg>
