<svg width="320" height="320" viewBox="0 0 320 320" fill="none" xmlns="http://www.w3.org/2000/svg">
<path d="M236.468 92.1636C236.468 92.1636 279.213 213.235 272.274 219.57C266.439 224.897 268.296 223.121 268.296 223.121M236.468 92.1636V85.0608M236.468 92.1636L231.524 206.697M229.837 245.762C223.207 248.869 90.1506 248.869 69.8164 244.43C62.3016 242.789 55.0584 239.121 50.3662 231.112C44.9275 221.829 47.7134 204.033 47.7134 204.033M229.837 245.762L231.14 215.575M229.837 245.762C236.911 245.276 265.202 227.116 268.296 223.121M47.7134 204.033C59.006 160.291 67.0817 135.219 87.4977 88.6122M47.7134 204.033C53.1566 207.94 59.3425 209.033 83.5197 209.763C92.0014 210.1 99.7977 210.375 107.119 210.582M87.4977 88.6122C87.4977 88.6122 88.2159 75.3407 88.8239 73.5188C89.4319 71.6968 236.692 71.6642 236.91 72.6303C237.128 73.5965 236.468 85.0608 236.468 85.0608M87.4977 88.6122C120.901 88.6597 139.372 88.1942 171.929 86.5994M236.468 85.0608C227.638 85.1596 222.792 85.2705 214.366 85.5877M231.14 215.575C246.719 221.735 255.456 222.337 268.296 223.121M231.14 215.575L231.524 206.697M231.524 206.697C221.551 207.938 208.373 208.571 179.549 209.763C177.481 209.881 175.442 209.99 173.426 210.091M58.3226 218.239V224.454M66.7215 226.673V232.888M227.627 92.1636C227.487 95.0342 227.454 96.4415 227.627 97.9347M218.344 99.2664C218.163 100.555 218.142 101.717 218.344 105.037M107.119 210.582C111.119 205.846 114.373 199.04 123.032 175.177C109.329 168.074 107.119 144.99 125.685 134.78C125.685 134.78 138.946 112.07 142.04 114.803C145.135 117.536 141.598 132.116 143.366 133.448C145.135 134.78 152.379 133.023 157.07 134.78C164.742 137.653 160.237 148.539 168.121 150.761C170.128 151.327 173.426 151.353 173.426 151.353M107.119 210.582C131.961 211.284 151.329 211.197 173.426 210.091M173.426 210.091C172.16 211.186 161.077 182.514 165.027 179.173C167.204 177.33 170.773 177.397 173.426 176.065C178.626 173.454 182.267 161.416 182.267 161.416M138.504 157.42C141.351 160.369 147.345 161.416 146.461 162.747C145.577 164.079 142.609 164.224 137.178 165.411M151.765 146.766C151.675 147.973 151.66 148.789 151.765 150.761M173.426 151.353C173.426 151.353 184.477 150.761 185.361 151.649C186.245 152.537 182.267 161.416 182.267 161.416M173.426 151.353C174.854 156.918 176.845 159.136 182.267 161.416" stroke="black" stroke-width="5" stroke-linecap="round"/>
</svg>
