<svg width="320" height="320" viewBox="0 0 320 320" fill="none" xmlns="http://www.w3.org/2000/svg">
<path d="M96.4164 103.425C146.029 113.986 173.702 115.682 222.696 107.913M96.4164 103.425C96.4164 103.425 43.3575 126.863 42.2963 130.852C41.2351 134.841 39.4327 170.177 40.174 173.24C40.9153 176.303 83.6821 173.272 87.3964 175.235C91.1107 177.198 65.6421 255.023 69.3563 266.992C73.0705 278.96 228.002 292.923 231.716 280.955C235.431 268.986 218.982 176.493 222.696 175.235C226.41 173.977 275.533 184.524 275.755 181.717C275.978 178.91 280 133.345 280 130.852C280 128.359 222.696 107.913 222.696 107.913M96.4164 103.425C98.8376 102.096 120.959 97.1097 131.435 95.9445M222.696 107.913C220.112 106.784 202.461 102.164 195.106 100.931M159.556 56.5488C154.292 53.4112 152.136 48.252 153.72 42.5858C155.332 36.8202 160.157 33.8232 166.454 33.1108C173.934 32.2647 179.345 36.3438 182.902 42.5858C186.228 48.4227 184.898 53.1908 182.902 59.5409C179.786 69.4536 163.801 78.9894 163.801 78.9894M163.801 78.9894C165.073 78.932 145.697 89.2499 131.435 95.9445M163.801 78.9894C163.619 79.393 182.631 92.915 195.106 100.931M131.435 95.9445C155.842 95.9445 171.76 97.9392 195.106 100.931M214.738 121.377C214.738 121.377 230.885 115.89 236.492 107.913C239.887 103.082 236.895 97.4561 241.798 93.9498C245.518 91.2891 253.471 91.4564 253.471 91.4564M253.471 91.4564C253.471 91.4564 252.772 98.9366 253.471 100.433C254.169 101.929 274.591 102.926 275.755 101.43C276.92 99.9339 277.347 85.4722 276.286 84.4749C275.225 83.4775 256.124 83.4775 254.532 84.4749C252.94 85.4722 253.471 91.4564 253.471 91.4564ZM114.987 155.287H121.885M128.782 155.287H121.885M121.885 155.287L117.109 178.227M117.109 178.227H109.681M117.109 178.227H126.129M241.798 141.324C241.567 146.468 241.552 148.548 241.798 150.301M258.246 136.836C258.227 139.363 257.985 141.227 256.654 146.311M256.654 156.285C256.877 159.206 256.84 160.844 256.654 163.765M87.3964 249.538C87.7156 252.654 87.7308 254.401 87.3964 257.517M92.7022 262.005C95.4182 262.624 97.0461 262.602 100.13 262.005M156.199 237.957C131.792 259.899 107.915 255.411 100.487 229.978C117.501 212.834 143.465 214.021 156.199 237.957ZM156.199 237.957C156.199 237.957 175.831 257.235 178.484 256.907C181.137 256.58 188.034 223.52 184.851 222C181.667 220.479 156.199 237.957 156.199 237.957ZM118.527 228.981L116.935 233.469M170.168 167.256C171.976 167.539 177.805 157.592 183.963 160.274C188.588 162.288 188.799 166.399 187.678 168.752C183.826 176.834 170.942 186.274 170.699 186.206C170.455 186.137 156.21 171.092 154.251 168.752C151.752 165.767 152.843 159.848 157.965 158.778C162.74 157.781 168.361 166.973 170.168 167.256Z" stroke="black" stroke-width="5" stroke-linecap="round"/>
</svg>
