<svg width="320" height="320" viewBox="0 0 320 320" fill="none" xmlns="http://www.w3.org/2000/svg">
<path d="M189 241.314L250.878 216.068C251.254 215.915 251.5 215.549 251.5 215.142V167.564M189 241.314C191 220.814 196.099 161.347 207.5 150.314C223 135.314 251.5 119.314 251.5 119.314M189 241.314C173.617 240.638 160.126 239.623 147.641 238.056M251.5 119.314L229.5 115.084M251.5 119.314V167.564M142.5 98.3529L121.773 94.3669C121.594 94.3326 121.437 94.3374 121.267 94.4006C117.727 95.714 74.973 111.75 70.5 121.814C59.3014 147.011 48.5383 199.641 47.1506 206.558C47.0596 207.012 47.2971 207.45 47.7182 207.642C56.7109 211.742 65.0791 215.355 73.0708 218.539M142.5 98.3529C142.5 98.3529 153 90.8143 157.5 89.3143C159.869 88.5246 165.69 88.8168 173.435 89.8002M142.5 98.3529C142.5 98.3529 127.297 103.218 113 111.415M142.5 98.3529L167.541 103.168M229.5 115.084C229.5 115.084 197.334 129.023 184 145.814C182.143 148.153 180.444 151.238 178.895 154.814M229.5 115.084C235.385 107.002 239.691 103.797 254 106.814M229.5 115.084L190.329 107.551M254 106.814C276 113.252 280 172.814 251.5 167.564M254 106.814C242.063 103.322 217.468 97.535 195.947 93.4777M113 111.415C105.725 115.586 98.6838 120.62 94 126.314C84.3824 138.007 78.32 186.014 77.5772 192.165C77.529 192.564 77.7272 192.943 78.0774 193.14C78.9254 193.617 79.7664 194.084 80.6011 194.54M113 111.415L110 150.638M178.895 154.814C170.216 174.863 166.26 210.38 165.601 216.804C165.543 217.361 165.044 217.764 164.488 217.701C161.643 217.379 158.899 217.056 156.246 216.727M178.895 154.814C170.913 142.495 159.607 141.364 154.853 140.383C154.056 140.218 154.028 139.348 154.759 138.989C160.651 136.099 179.904 125.62 190.329 107.551M159.5 207.314C159.5 207.314 158.298 211.074 156.246 216.727M132 159.814C134.369 163.217 135.152 165.397 135.5 169.814M126 167.814C130.94 164.485 134.03 163.216 140 161.814M184 217.814C184.791 220.879 184.602 222.333 184 224.814M171.5 232.814C173.3 232.144 174.84 232.096 178.895 232.814M235 196.814C234.922 198.834 234.91 199.863 235 201.314M242 190.314C241.876 192.072 241.859 193.057 242 194.814M242 203.314C242.253 205.745 242.194 206.632 242 207.314M60 190.814C59.3935 191.903 58.9423 193.385 58 197.314M63.5 201.314C62.8247 204.014 62.3733 204.862 61.5 205.814M110 150.638C119.054 142.097 129.831 134.982 142.5 130.314C151.711 126.921 160.977 115.536 167.541 103.168M110 150.638C96.6182 163.261 87.0004 178.996 80.6011 194.54M80.6011 194.54C77.2187 202.756 74.7355 210.919 73.0708 218.539M112.768 208.338C115.235 203.855 117.343 201.061 119 201.314C120.697 201.573 121.059 205.162 120.79 210.557M112.768 208.338C115.385 209.134 118.05 209.871 120.79 210.557M112.768 208.338C109.877 213.594 106.493 221.172 102.766 228.885M120.79 210.557C120.492 216.516 119.425 224.679 118.54 232.992M156.246 216.727C154.144 222.519 151.149 230.298 147.641 238.056M73.0708 218.539C68.1918 240.875 70.3442 258.561 77.5 259.314C86.4987 260.261 95.3178 244.302 102.766 228.885M102.766 228.885C108.023 230.423 113.251 231.785 118.54 232.992M118.54 232.992C116.694 250.328 115.639 268.314 124 268.314C131.958 268.314 140.781 253.225 147.641 238.056M229.5 56.3142C229.5 56.3142 242 46.8142 246 56.3142C250 65.8142 232 72.3142 232 72.3142M232 80.3142V82.3142M173.435 89.8002C176.44 81.2316 177.616 73.4215 176 68.8143C171.265 55.3144 172 70.3143 167.5 75.3143C162.861 80.4682 155.5 79.3142 152.5 72.3142C149.857 66.1465 155 57.8031 156 56.3142C159.694 50.8141 169.536 48.2441 179.5 51.3142C191.478 55.0047 195.934 65.8262 197 78.3143C197.462 83.7259 197.035 88.7804 195.947 93.4777M173.435 89.8002C171.903 94.1672 169.896 98.7311 167.541 103.168M195.947 93.4777C194.762 98.5921 192.792 103.283 190.329 107.551M240.5 151.85V159.127C240.5 159.541 240.245 159.912 239.859 160.061L215.859 169.291C215.204 169.543 214.5 169.06 214.5 168.358V162.465C214.5 162.069 214.733 161.711 215.095 161.551L239.095 150.936C239.757 150.643 240.5 151.127 240.5 151.85Z" stroke="black" stroke-width="5" stroke-linecap="round"/>
</svg>
