<svg width="320" height="320" viewBox="0 0 320 320" fill="none" xmlns="http://www.w3.org/2000/svg">
<path d="M66.4801 83V71C66.4801 70.4477 66.9278 70 67.4801 70H172.876C173.428 70 173.876 70.4477 173.876 71V83M66.4801 83C51.2804 133.988 46.621 164.642 46.004 223.116C46.0014 223.36 46.0873 223.601 46.2484 223.785C70.9076 251.843 127.079 256.431 173.876 236M66.4801 83H80.4665M173.876 236C183.881 231.676 188.334 226.722 193.306 211.655C193.339 211.554 193.357 211.443 193.357 211.337C193.308 155.733 187.719 128.571 173.876 83M173.876 236C166.778 177.062 166.873 143.554 173.876 83M173.876 83H102.445M184.365 192.5L185.365 198M56.9893 209.5V217M64.482 221V226M160.389 95.5V101.5M151.398 107.5V114M160.389 117V123M103.944 119.5V123M115.932 119.5V123M91.9553 174C92.2772 167.043 95.5314 162.94 104.784 156.192C105.455 155.703 106.425 156.204 106.459 157.034C106.58 160.015 107.19 165.491 109.938 168C113.224 171.001 118.099 167.563 120.927 171C123.093 173.632 122.925 179.5 122.925 179.5M91.9553 174C90.0545 179.831 94.9524 181.5 122.925 179.5M91.9553 174C91.9553 174 81.7195 181.047 83.4636 188C83.7372 189.091 84.1071 190.092 84.571 191M122.925 179.5C122.925 179.5 127.12 182.312 128.919 186.5C131.006 191.357 126.921 198 126.921 198M126.921 198C126.921 198 121.116 195.363 114.433 194.5C105.515 193.349 100.947 198.5 92.9544 197C89.0407 196.265 86.2151 194.217 84.571 191M126.921 198C126.921 198 132.552 201.22 133.415 205.5C134.278 209.78 136.278 217 131.916 217C125.922 217 123.004 213.733 114.433 212.5C101.881 210.694 84.2636 218.622 79.4675 209.5C74.4723 200 84.571 191 84.571 191M235.316 146.862C224.675 149.829 214.505 150.571 201.969 150.028C201.59 150.011 201.25 149.776 201.097 149.428C192.654 130.212 189.769 118.31 187.91 96.0767C187.88 95.7232 188.046 95.3703 188.337 95.1668C215.17 76.371 231.237 71.062 260.656 70.0217C261.04 70.0081 261.407 70.2217 261.584 70.5622C272.246 91.0584 274.593 104.054 273.797 128.445C273.786 128.787 273.597 129.107 273.302 129.28C257.993 138.265 246.399 143.771 235.316 146.862ZM235.316 146.862C235.316 146.862 236.815 211.5 241.31 221C243.603 225.846 247.606 229.815 252.799 228.5C257.416 227.331 259.318 223.243 259.792 218.5C260.791 208.5 235.316 146.862 235.316 146.862ZM249.302 86.5C251.531 98.9145 253.49 105.928 257.794 118.5M231.819 93C236.213 106.756 239.064 114.013 245.806 125M215.335 98C219.438 112.478 221.735 119.766 225.825 130.5M201.349 103.5C203.561 117.536 205.741 125.125 211.839 138M84.9621 123C84.9621 117.182 93.2042 111.208 94.7158 110.161C94.8706 110.054 94.9937 109.909 95.0715 109.738L99.2258 100.589C99.5453 99.8857 100.508 99.795 100.954 100.427L105.643 107.076C105.83 107.342 106.135 107.5 106.46 107.5H117.063C117.3 107.5 117.53 107.416 117.711 107.262L125.773 100.402C126.422 99.8497 127.421 100.311 127.421 101.164V111.027C127.421 111.326 127.552 111.608 127.778 111.805C129.268 113.107 134.914 118.346 134.914 123C134.914 128.362 131.753 131.346 127.421 134.5C121.926 138.5 98.9485 138 94.9524 136C89.2291 133.136 84.9621 129.405 84.9621 123Z" stroke="black" stroke-width="5" stroke-linecap="round"/>
</svg>
