<svg width="320" height="320" viewBox="0 0 320 320" fill="none" xmlns="http://www.w3.org/2000/svg">
<path d="M94.3631 68.8389C102.681 62.6694 128.947 61.7881 136.827 68.8389M94.3631 68.8389V85.5847C104.432 91.7542 127.254 91.7492 136.827 86.4661V68.8389M94.3631 68.8389C106.183 74.5678 127.378 75.2584 136.827 68.8389M42.4196 149.042C43.722 138.018 45.4131 128.279 47.521 120.398C49.289 113.788 69.6137 96.7188 88.2342 89.1102C98.303 97.9237 127.196 101.449 144.27 90.8729C160.067 100.869 166.342 107.424 174.038 120.398C181.735 133.373 177.103 283.449 177.103 283.449C152.587 301.076 69.4094 302.398 41.3921 282.127C40.4203 269.189 39.7303 255.644 39.3485 242.026M42.4196 149.042C58.8243 155.049 76.693 156.294 118.44 156.093V249.958C111.572 253.258 101.364 254.596 90.4227 254.453C87.0431 254.409 83.5936 254.224 80.151 253.911M42.4196 149.042C39.3988 174.612 38.4687 207.102 39.2783 239.381M39.3485 242.026C39.3238 241.144 39.3004 240.263 39.2783 239.381M39.3485 242.026C46.975 247.901 63.4824 252.397 80.151 253.911M144.27 108.941C147.417 110.48 148.804 112.14 151.274 115.11M144.27 120.398C146.715 123.91 148.31 125.028 151.274 126.568M163.969 255.687C164.707 257.82 164.851 259.368 163.969 263.619M153.9 275.517C157.229 275.804 158.822 274.721 161.78 273.314M51.0228 265.822C50.5212 267.973 50.5586 269.535 51.0228 273.314M212.125 161.381C220.442 155.212 244.52 153.449 252.4 160.5M212.125 161.381V173.28C223.945 180.331 241.893 179.89 252.4 173.28V160.5M212.125 161.381C223.945 167.11 242.951 166.92 252.4 160.5M205.996 191.788C204.361 193.527 203.529 194.55 202.493 196.636M208.622 202.365L205.996 205.009M267.722 267.585C268.924 271.538 269.195 273.091 269.473 275.517M255.464 278.161C258.324 278.61 259.708 278.784 262.031 279.042M201.618 56.9404C204.022 60.5545 204.13 62.5805 201.618 66.1946M39.2783 239.381C39.2783 239.381 50.82 221.313 50.82 218.669C50.82 213.265 49.4649 211.119 50.82 205.89C53.4466 195.754 60.8888 197.958 61.7644 193.11C62.631 188.312 67.2532 183.614 69.5953 181.497C70.177 180.972 71.0795 181.334 71.1914 182.11C71.5792 184.802 72.4708 190.06 74.0221 194.432C75.185 197.71 78.8096 195.52 81.9021 197.076C84.5288 198.398 84.9665 207.652 87.1554 208.093C91.0409 208.875 96.7025 208.488 99.3124 208.243C100.002 208.178 100.559 208.798 100.377 209.466C99.4806 212.766 96.8502 221.141 92.4087 224.839C88.8458 227.806 82.097 229.445 79.705 229.954C79.2107 230.059 78.8586 230.506 78.8865 231.011L80.151 253.911M74.0221 206.771V209.415M63.0777 213.381C64.2954 214.592 64.9211 215.373 65.6854 215.884C66.2699 216.275 66.5883 217.095 66.1074 217.608C65.2317 218.542 64.2463 219.013 62.2022 219.11M205.996 179.89C216.065 188.703 242.331 189.585 259.404 179.009C261.593 177.653 273.567 188.832 277.791 198.398C279.542 202.365 282.798 280.364 279.542 283.449C272.1 290.5 211.249 298.873 191.549 282.127C186.725 278.027 190.674 201.924 191.549 198.398C193.764 189.481 204.989 179.009 205.996 179.89ZM195.051 40.6355C183.686 40.5152 174.038 49.4654 174.038 60.9067C174.038 72.3481 183.686 81.2982 195.051 81.178C206.294 81.059 215.627 72.2246 215.627 60.9067C215.627 49.5889 206.294 40.7545 195.051 40.6355ZM237.953 23.0081C231.308 22.7602 225.696 28.2124 225.696 34.9064C225.695 41.3572 230.674 46.5658 237.078 46.8048C243.723 47.0527 249.335 41.6005 249.336 34.9064C249.336 28.4557 244.357 23.247 237.953 23.0081ZM240.936 72.3641C232.735 72.2895 225.44 78.6555 225.696 86.9065C225.944 94.9247 232.967 100.64 240.936 100.568C248.825 100.496 255.656 94.8448 255.902 86.9065C256.155 78.7331 249.059 72.438 240.936 72.3641ZM262.907 218.561V250.432C262.907 250.921 262.546 251.34 262.063 251.419C240.394 254.955 227.994 254.773 206.786 250.132C206.328 250.032 205.996 249.624 205.996 249.155V219.822C205.996 219.213 206.541 218.747 207.144 218.831C228.485 221.795 240.85 221.563 261.708 217.579C262.326 217.461 262.907 217.932 262.907 218.561Z" stroke="black" stroke-width="5" stroke-linecap="round"/>
</svg>
