<svg width="320" height="320" viewBox="0 0 320 320" fill="none" xmlns="http://www.w3.org/2000/svg">
<path d="M141 176.001H136.36C135.865 176.001 135.445 175.64 135.371 175.151L133.174 160.651C133.083 160.046 133.551 159.501 134.163 159.501H140M141 176.001C142.887 206.955 145.317 224.336 152.334 254.784C152.432 255.207 152.801 255.526 153.233 255.562C183.751 258.128 201.197 258.312 231.695 255.573C232.161 255.531 232.544 255.163 232.605 254.699C236.8 222.69 238.633 205.341 241 176.001M141 176.001H241M241 176.001H245.14C245.635 176.001 246.055 175.64 246.129 175.151L248.326 160.651C248.417 160.046 247.949 159.501 247.337 159.501H246.5M140 159.501C140 159.501 137 76.9999 147.5 76.9999C158 76.9999 158.5 159.501 158.5 159.501M140 159.501H158.5M158.5 159.501C158.5 159.501 156 57.4999 167.5 57.4999C179 57.4999 177.5 159.501 177.5 159.501M158.5 159.501H177.5M177.5 159.501C177.5 159.501 175 53 188 53C201 53 199.5 159.501 199.5 159.501M177.5 159.501H199.5M199.5 159.501C199.5 159.501 199.5 67 207.5 67C215.5 67 217 159.501 217 159.501M199.5 159.501H217M217 159.501C217 159.501 213.5 55 222.5 55C231.5 55 237 159.501 237 159.501M217 159.501H235M237 159.501H235M237 159.501H246.5M235 159.501C235 159.501 233.5 86.6328 240 86.5C246.5 86.3672 246.5 159.501 246.5 159.501M162 231.5C162.071 233.069 162.088 233.885 162 235M167.5 242C168.888 242.08 170.239 241.77 173 241M225.5 189C225.66 191.142 225.703 192.401 225.5 195M214.5 195C214.085 198.914 213.933 200.842 214.5 201.5M223 207C222.963 208.533 222.952 209.72 223 214M100 214C79.5832 207.278 74.3886 198.028 72.1533 176.54C72.0784 175.82 72.7788 175.263 73.4608 175.506C93.1192 182.532 101.305 194.169 100 214ZM100 214C103.251 218.568 106.415 222.708 109.637 226.5M178.5 266.5C159.517 260.58 145.389 254.405 134 247.212M109.637 226.5C105.347 208.445 105.417 199.721 111.883 188.999C112.201 188.472 112.924 188.374 113.381 188.786C125.993 200.155 128.003 207.49 114.5 231.5M109.637 226.5C111.56 228.763 112.504 229.469 114.5 231.5M114.5 231.5C115.163 232.175 115.835 232.842 116.515 233.5M105 220.763C94.0802 217.908 82.9022 220.165 72.5398 223.063C71.8279 223.263 71.5785 224.14 72.0857 224.678C82.747 235.984 92.1713 237.997 116.515 233.5M116.515 233.5C119.614 236.499 122.896 239.322 126.448 242M126.448 242C123.002 229.973 124.726 222.585 133.033 209.504C133.451 208.845 134.432 208.909 134.764 209.616C141.271 223.499 143.557 231.863 134 247.212M126.448 242C127.602 242.87 128.785 243.726 130 244.567M134 247.212C132.628 246.345 131.296 245.464 130 244.567M130 244.567C113.014 240.08 104.158 240.773 90.5843 247.921C90.0242 248.216 89.8773 248.95 90.318 249.404C101.852 261.3 138.292 266.94 130 244.567Z" stroke="black" stroke-width="5" stroke-linecap="round"/>
</svg>
