<svg width="320" height="320" viewBox="0 0 320 320" fill="none" xmlns="http://www.w3.org/2000/svg">
<path d="M108.852 167.075C97.8988 169.282 87.9827 170.077 79.8518 169C73.5599 168.167 68.0162 166.571 63.1849 164.335M108.852 167.075C139.083 86.3853 257.279 49.977 258.792 79M108.852 167.075C117.194 165.394 126.137 162.892 135.352 159.773M258.792 79C258.856 80.2176 258.714 81.5505 258.352 83C257.634 84.8584 256.464 86.8682 254.89 89M258.792 79C261.059 95.1872 261.711 104.478 258.39 122.292C258.365 122.427 258.315 122.554 258.237 122.668C238.461 151.488 167.537 182.642 123.274 191.5M101.352 193.963C96.3412 193.872 92.4007 193.084 89.8517 191.5C76.826 183.403 67.968 174.81 63.1849 164.335M101.352 193.963C107.322 194.072 114.811 193.194 123.274 191.5M101.352 193.963C96.4535 213.429 100.441 228.598 110.05 239.682M123.274 191.5C113.28 210.951 109.399 226.871 110.05 239.682M254.89 89C239.233 110.195 183.583 143.448 135.352 159.773M254.89 89C222.352 81 163.134 117.149 135.352 159.773M68.8516 74L66.3516 79M77.3516 59.5L74.3516 65M66.3516 63.5L62.8516 69.5M87.8516 178.5L91.3516 183M99.3516 180L101.352 184.5M251.352 111L245.352 115M235.352 122.5L229.852 127M248.352 122.5L242.852 127M235.352 258L229.852 260.5M225.852 266L218.852 269M244.744 253.5L245.219 246.861C245.275 246.065 244.425 245.522 243.725 245.905C200.057 269.733 135.435 268.964 110.05 239.682M244.744 253.5L243.889 265.477C243.866 265.805 243.689 266.097 243.405 266.262C198.664 292.378 112.833 294.526 110.05 239.682M244.744 253.5C250.069 250.957 253.685 248.76 256.464 246M262.352 237C261.304 239.332 260.232 241.287 259.009 243M256.464 246C256.464 246 260.345 255.623 265.852 257C269.852 258 276.352 255.5 276.852 249C277.13 245.379 276.352 242.5 273.352 241C268.293 238.471 259.009 243 259.009 243M256.464 246C257.395 245.075 258.232 244.086 259.009 243M242.852 174.5C242.809 177.693 241.739 180.248 237.352 189.702M235.352 178.5C237.145 182.241 237.949 184.271 244.744 189.702M52.3516 220V233.5M43.3516 230.5C50.5133 228.458 54.4523 227.106 60.8516 223M63.1849 164.335C19.9574 144.32 33.764 72.9447 78.955 36.7111C79.4271 36.3326 80.1245 36.4637 80.4313 36.9853L89.5766 52.5323C89.7482 52.824 89.7573 53.1893 89.6064 53.4923C61.8203 109.28 52.6862 141.341 63.1849 164.335ZM282.426 189.702C276.74 192.938 276.129 201.002 275.886 206.338C275.839 207.366 274.579 207.604 274.352 206.601C272.423 198.101 267.852 192.882 261.14 192.882C260.27 192.882 260.047 190.932 260.852 190.601C269.352 187.101 268.852 179.101 270.331 172.621C270.554 171.644 272.105 171.651 272.423 172.601C273.927 177.087 274.352 184.101 282.352 186.601C283.351 186.913 283.337 189.184 282.426 189.702ZM86.3922 243.864C80.7061 247.099 80.0944 255.164 79.8518 260.5C79.805 261.528 78.5451 261.766 78.3174 260.763C76.3889 252.263 71.8174 247.043 65.1062 247.043C64.2361 247.043 64.0129 245.094 64.8174 244.763C73.3174 241.263 72.8174 233.263 74.2965 226.783C74.5195 225.806 76.0705 225.813 76.3889 226.763C77.8926 231.248 78.3174 238.263 86.3174 240.763C87.317 241.075 87.3024 243.346 86.3922 243.864Z" stroke="black" stroke-width="5" stroke-linecap="round"/>
</svg>
