<svg width="307" height="277" viewBox="0 0 307 277" fill="none" xmlns="http://www.w3.org/2000/svg">
<path d="M174.459 38.3116C182.945 8.74534 212.749 -2.03915 243.392 0.311592C275.197 2.75147 304.506 19.9677 306.831 51.8116C308.674 77.0607 295.348 94.7964 273.363 107.312C247.832 121.845 221.238 119.341 198.436 100.812C178.157 84.3325 167.246 63.4405 174.459 38.3116Z" fill="#231E54"/>
<path d="M18.111 234.312C0.627922 215.312 -7.88082 187.304 9.61908 167.812C21.7088 154.346 35.9503 150.751 53.5765 154.812C68.3667 158.219 74.5561 166.312 84.5465 178.312C94.4886 190.254 102.815 196.617 118.014 199.812C141.096 204.663 153.374 184.101 175.458 175.812C187.446 171.312 205.3 171.869 220.414 178.312C236.836 185.312 243.891 193.812 246.389 207.812C248.011 216.902 245.264 229.135 236.399 241.812C225.909 256.812 202.931 268.312 174.459 273.812C161.971 276.224 124.582 278.221 94.0372 270.812C62.0692 263.057 34.8614 252.515 18.111 234.312Z" fill="#231E54"/>
</svg>
