<svg width="307" height="136" viewBox="0 0 307 136" fill="none" xmlns="http://www.w3.org/2000/svg">
<path d="M0.15442 60.3749C-1.92164 34.8923 17.2221 13.7984 40.3126 4.9825C50.6503 1.03557 69.1149 -3.9113 84.4469 4.98251C96.3524 11.8887 102.534 20.0893 105.521 33.9188C109.298 51.4024 102.773 64.0375 91.2076 77.3233C74.8828 96.0763 52.6371 102.126 31.5653 96.7519C12.0369 91.7716 1.85146 81.2051 0.15442 60.3749Z" fill="#B2AB73"/>
<path d="M225.995 45.08C237.383 27.3618 251.812 16.1263 272.117 19.0373C294.001 22.1747 306.311 50.8672 306.311 71.536C306.311 92.2048 297.564 111.472 289.214 119.074C276.912 130.274 261.382 137.263 249.056 135.196C236.73 133.129 225.28 119.257 219.235 103.779C213.908 90.1379 213.886 63.9192 225.995 45.08Z" fill="#B2AB73"/>
</svg>
