<svg width="258" height="210" viewBox="0 0 258 210" fill="none" xmlns="http://www.w3.org/2000/svg">
<path d="M4.15744 121.5C-4.48996 97.2492 2.09711 67.9999 8.15725 56C14.2174 44.0001 24.6574 29.4999 39.1573 20.5C53.6572 11.5001 78.1571 -9.08971e-06 106.157 0C134.157 9.08971e-06 164.657 5.96942 183.657 14.5C202.657 23.0306 224.838 37.0876 238.657 64C248.67 83.5 259.239 108.225 257.157 135C255.323 158.585 246.219 172.152 228.657 188C203.723 210.5 174.158 212.5 150.157 208C126.157 203.5 51.6574 173.348 39.1573 164C26.6571 154.652 11.6791 142.594 4.15744 121.5Z" fill="#B2AB73"/>
</svg>
