<svg width="298" height="281" viewBox="0 0 298 281" fill="none" xmlns="http://www.w3.org/2000/svg">
<path d="M1.97362 92.4864C8.15838 51.9514 29.9736 15.4863 54.4736 3.48634C66.2552 -2.28426 75.8692 -0.73716 86.4736 6.98633C99.6054 16.5505 95.4736 35.4863 93.4736 44.4863C90.1748 59.3309 82.9736 72.9863 80.4736 79.9863C77.9736 86.9863 72.4736 114.986 80.4736 119.486C88.4736 123.986 106.974 95.9863 127.974 96.9863C148.974 97.9863 159.474 115.986 161.974 125.986C164.474 135.986 160.974 153.986 157.974 161.986C154.974 169.986 136.974 194.986 123.474 204.986C109.974 214.986 98.9736 218.73 72.9736 214.986C46.9736 211.243 24.4364 194.486 12.9736 174.986C1.51085 155.486 -2.92895 124.618 1.97362 92.4864Z" fill="#E95B47"/>
<path d="M208.974 32.4863C221.474 25.4863 238.974 28.9863 248.474 35.4863C257.974 41.9863 272.474 59.4863 280.974 74.9863C289.474 90.4863 297.697 116.481 297.474 154.986C297.226 197.714 300.204 241.413 265.974 266.986C250.283 278.709 237.974 281.986 223.974 280.486C209.974 278.986 193.974 274.486 186.474 237.486C178.974 200.486 206.837 195.651 210.474 163.986C215.207 122.771 195.474 112.986 188.974 81.9863C182.474 50.9863 196.474 39.4863 208.974 32.4863Z" fill="#E95B47"/>
</svg>
