<svg width="256" height="269" viewBox="0 0 256 269" fill="none" xmlns="http://www.w3.org/2000/svg">
<path d="M0.022825 68.2814C-1.28599 27.2154 54.0234 2.28137 80.5226 0.281209C100.053 -1.19293 114.776 2.91069 127.523 17.7812C136.951 28.7813 131.537 37.301 139.023 47.2812C142.023 51.2813 164.814 33.7812 184.023 33.7812C206.523 33.7812 221.346 42.9277 228.023 62.2812C240.442 98.2812 206.023 105.281 212.523 110.781C223.325 119.922 251.023 120.281 255.523 145.781C260.023 171.281 230.523 230.781 177.523 259.281C168.837 263.952 134.523 277.281 107.523 259.281C80.5225 241.281 83.0874 204.479 102.023 179.781C113.523 164.781 123.523 153.281 123.523 140.281C123.523 122.572 110.523 110.781 92.0227 110.781C76.2838 110.781 63.0227 123.281 41.0225 121.281C12.0454 118.647 0.949694 97.3633 0.022825 68.2814Z" fill="#E95B47"/>
</svg>
